<?xml version='1.0' encoding='utf-8'?>
<svg xmlns="http://www.w3.org/2000/svg" width="3e3" height="3e3" version="1.1" viewBox="0 0 793.75 793.75"> <g transform="translate(0 496.75)"> <path d="m0-496.75h793.75v793.75h-793.75z" fill="#1ed760" style="paint-order:fill markers stroke"/> <g transform="matrix(1.6061 0 0 1.6061 -2408.8 394.37)" stroke-width=".62264"> <path d="m1921.6-307.74a174.62 174.62 0 0 1-174.62 174.62 174.62 174.62 0 0 1-174.62-174.62 174.62 174.62 0 0 1 174.62-174.62 174.62 174.62 0 0 1 174.62 174.62z" fill="#fff" style="paint-order:fill markers stroke"/> <path d="m1728.5-388.43c-29.638-0.44586-60.249 3.0105-91.256 10.627a15.877 15.877 0 1 0 7.5742 30.834c75.942-18.655 147.59-9.9764 206.6 20.35a15.877 15.877 0 1 0 14.514-28.238c-41.338-21.244-88.036-32.829-137.43-33.572z" color="#000000" color-rendering="auto" dominant-baseline="auto" enable-background="accumulate" fill="#1ed760" image-rendering="auto" shape-rendering="auto" solid-color="#000000" style="font-feature-settings:normal;font-variant-alternates:normal;font-variant-caps:normal;font-variant-ligatures:normal;font-variant-numeric:normal;font-variant-position:normal;isolation:auto;mix-blend-mode:normal;paint-order:fill markers stroke;shape-padding:0;text-decoration-color:#000000;text-decoration-line:none;text-decoration-style:solid;text-indent:0;text-orientation:mixed;text-transform:none;white-space:normal"/> <path d="m1725-327.93c-24.268-0.82404-49.385 1.3574-75.672 6.3906a13.23 13.23 0 1 0 4.9746 25.986c65.759-12.591 120-6.3996 174.49 21.113a13.23 13.23 0 1 0 11.924-23.619c-37.19-18.777-75.274-28.498-115.72-29.871z" color="#000000" color-rendering="auto" dominant-baseline="auto" enable-background="accumulate" fill="#1ed760" image-rendering="auto" shape-rendering="auto" solid-color="#000000" style="font-feature-settings:normal;font-variant-alternates:normal;font-variant-caps:normal;font-variant-ligatures:normal;font-variant-numeric:normal;font-variant-position:normal;isolation:auto;mix-blend-mode:normal;paint-order:fill markers stroke;shape-padding:0;text-decoration-color:#000000;text-decoration-line:none;text-decoration-style:solid;text-indent:0;text-orientation:mixed;text-transform:none;white-space:normal"/> <path d="m1712.8-272.47c-18.702 0.39923-38.228 3.0351-58.34 8.3145a10.584 10.584 0 1 0 5.3731 20.473c59.319-15.571 111.91-6.0808 151.85 15.328a10.584 10.584 0 1 0 9.998-18.656c-30.593-16.396-67.741-26.337-108.88-25.459z" color="#000000" color-rendering="auto" dominant-baseline="auto" enable-background="accumulate" fill="#1ed760" image-rendering="auto" shape-rendering="auto" solid-color="#000000" style="font-feature-settings:normal;font-variant-alternates:normal;font-variant-caps:normal;font-variant-ligatures:normal;font-variant-numeric:normal;font-variant-position:normal;isolation:auto;mix-blend-mode:normal;paint-order:fill markers stroke;shape-padding:0;text-decoration-color:#000000;text-decoration-line:none;text-decoration-style:solid;text-indent:0;text-orientation:mixed;text-transform:none;white-space:normal"/> </g> </g> </svg>